<svg width="32" height="32" viewBox="0 0 32 32" fill="none" xmlns="http://www.w3.org/2000/svg">
<path d="M31.9373 6.09334C30.7393 6.62081 29.4701 6.96899 28.1707 7.12667C29.5388 6.30434 30.5632 5.01473 31.0547 3.496C29.7867 4.236 28.3813 4.77467 26.8853 5.07467C25.8983 4.01924 24.5905 3.31923 23.1649 3.08334C21.7392 2.84745 20.2756 3.08887 19.0012 3.77013C17.7269 4.45138 16.7131 5.53434 16.1174 6.85084C15.5217 8.16733 15.3773 9.6437 15.7067 11.0507C10.2533 10.7933 5.42267 8.17334 2.18667 4.216C1.59839 5.21576 1.29155 6.35604 1.29867 7.516C1.29867 9.796 2.45867 11.8 4.216 12.9773C3.17448 12.9442 2.15596 12.6626 1.24533 12.156V12.236C1.24474 13.7512 1.76836 15.2199 2.72734 16.393C3.68633 17.5661 5.02162 18.3713 6.50667 18.672C5.5444 18.9298 4.53655 18.9686 3.55733 18.7853C3.97883 20.0893 4.79688 21.2293 5.89735 22.046C6.99782 22.8627 8.3258 23.3156 9.696 23.3413C7.37537 25.1626 4.50997 26.1511 1.56 26.148C1.04 26.148 0.521333 26.1173 0 26.0587C3.00761 27.9844 6.50468 29.0067 10.076 29.004C22.1467 29.004 28.74 19.0093 28.74 10.3573C28.74 10.0773 28.74 9.79734 28.72 9.51734C30.008 8.59049 31.119 7.43976 32 6.12L31.9373 6.09334Z" fill="white"/>
</svg>
