<?xml version="1.0" encoding="UTF-8"?>
<svg width="235px" height="254px" viewBox="0 0 235 254" version="1.1" xmlns="http://www.w3.org/2000/svg" xmlns:xlink="http://www.w3.org/1999/xlink">
    <!-- Generator: Sketch 55 (78076) - https://sketchapp.com -->
    <title>Combined Shape</title>
    <desc>Created with Sketch.</desc>
    <g id="Site" stroke="none" stroke-width="1" fill="none" fill-rule="evenodd">
        <g id="Desktop-HD" transform="translate(-761.000000, -62.000000)" fill="#FFFFFF">
            <g id="Hero">
                <g id="Group-2" transform="translate(761.000000, 62.000000)">
                    <path d="M130.643049,2.80980076 L225.119521,54.4993457 C231.21157,57.8324004 235,64.2234804 235,71.1677093 L235,190.347176 C235,197.742968 230.708392,204.4667 224.000172,207.580784 L129.564538,251.419623 C124.65726,253.697676 119.011545,253.775655 114.043222,251.634006 L11.4788563,207.422537 C4.51248739,204.419609 4.48173458e-15,197.560577 3.55271368e-15,189.974545 L0,71.5637927 C-8.75969022e-16,64.4109628 4.01716249,57.8642469 10.3942186,54.6244738 L112.917747,2.53884535 C118.508826,-0.301623249 125.141403,-0.200235265 130.643049,2.80980076 Z M194.714541,121.213601 L163.388926,90.2619674 C160.336528,87.2460109 155.372528,87.2460109 152.32013,90.2619674 C149.267733,93.2779238 149.267733,98.1826611 152.32013,101.198618 L178.095932,126.666694 L152.289298,152.165236 C149.236901,155.181192 149.236901,160.085929 152.289298,163.101886 C154.694217,165.478094 160.644851,165.782736 163.358093,163.101886 L194.683709,132.150252 C197.766939,129.134295 197.766939,124.260022 194.714541,121.213601 Z M83.7108888,90.2610728 C80.6587406,87.2463091 75.6951459,87.2463091 72.6429977,90.2610728 L41.2891112,121.200466 C38.2369629,124.21523 38.2369629,129.118027 41.2891112,132.132791 L72.6121679,163.102636 C75.3251886,165.782426 81.2753362,165.477905 83.680059,163.102636 C86.7322073,160.087873 86.7322073,155.185075 83.680059,152.170311 L57.9063627,126.712307 L83.7108888,101.22385 C86.7630371,98.178634 86.7630371,93.3062887 83.7108888,90.2610728 Z M141.485075,56.3627022 C137.340292,55.066732 132.948059,57.3501081 131.648947,61.5157269 L92.3662996,186.916278 C91.0671884,191.051041 93.3251674,195.586937 97.5318131,196.728625 C102.01684,197.932026 106.316279,194.938952 107.367941,191.5756 L146.650588,66.1750485 C147.918768,62.0402863 145.629858,57.6586725 141.485075,56.3627022 Z" id="Combined-Shape"></path>
                </g>
            </g>
        </g>
    </g>
</svg>