<?xml version="1.0" encoding="UTF-8"?>
<svg width="350px" height="318px" viewBox="0 0 350 318" version="1.1" xmlns="http://www.w3.org/2000/svg" xmlns:xlink="http://www.w3.org/1999/xlink">
    <!-- Generator: Sketch 55 (78076) - https://sketchapp.com -->
    <title>dot grid</title>
    <desc>Created with Sketch.</desc>
    <g id="Site" stroke="none" stroke-width="1" fill="none" fill-rule="evenodd" fill-opacity="0.32" opacity="0.303664435">
        <g id="Desktop-HD" transform="translate(-821.000000, -30.000000)" fill="#FFFFFF">
            <g id="Hero">
                <path d="M1046,348 C1048.76142,348 1051,345.761424 1051,343 C1051,340.238576 1048.76142,338 1046,338 C1043.23858,338 1041,340.238576 1041,343 C1041,345.761424 1043.23858,348 1046,348 Z M1046,326 C1048.76142,326 1051,323.761424 1051,321 C1051,318.238576 1048.76142,316 1046,316 C1043.23858,316 1041,318.238576 1041,321 C1041,323.761424 1043.23858,326 1046,326 Z M1046,304 C1048.76142,304 1051,301.761424 1051,299 C1051,296.238576 1048.76142,294 1046,294 C1043.23858,294 1041,296.238576 1041,299 C1041,301.761424 1043.23858,304 1046,304 Z M1046,282 C1048.76142,282 1051,279.761424 1051,277 C1051,274.238576 1048.76142,272 1046,272 C1043.23858,272 1041,274.238576 1041,277 C1041,279.761424 1043.23858,282 1046,282 Z M1046,260 C1048.76142,260 1051,257.761424 1051,255 C1051,252.238576 1048.76142,250 1046,250 C1043.23858,250 1041,252.238576 1041,255 C1041,257.761424 1043.23858,260 1046,260 Z M1046,238 C1048.76142,238 1051,235.761424 1051,233 C1051,230.238576 1048.76142,228 1046,228 C1043.23858,228 1041,230.238576 1041,233 C1041,235.761424 1043.23858,238 1046,238 Z M1046,216 C1048.76142,216 1051,213.761424 1051,211 C1051,208.238576 1048.76142,206 1046,206 C1043.23858,206 1041,208.238576 1041,211 C1041,213.761424 1043.23858,216 1046,216 Z M1046,194 C1048.76142,194 1051,191.761424 1051,189 C1051,186.238576 1048.76142,184 1046,184 C1043.23858,184 1041,186.238576 1041,189 C1041,191.761424 1043.23858,194 1046,194 Z M1046,172 C1048.76142,172 1051,169.761424 1051,167 C1051,164.238576 1048.76142,162 1046,162 C1043.23858,162 1041,164.238576 1041,167 C1041,169.761424 1043.23858,172 1046,172 Z M1046,150 C1048.76142,150 1051,147.761424 1051,145 C1051,142.238576 1048.76142,140 1046,140 C1043.23858,140 1041,142.238576 1041,145 C1041,147.761424 1043.23858,150 1046,150 Z M1046,128 C1048.76142,128 1051,125.761424 1051,123 C1051,120.238576 1048.76142,118 1046,118 C1043.23858,118 1041,120.238576 1041,123 C1041,125.761424 1043.23858,128 1046,128 Z M1046,106 C1048.76142,106 1051,103.761424 1051,101 C1051,98.2385763 1048.76142,96 1046,96 C1043.23858,96 1041,98.2385763 1041,101 C1041,103.761424 1043.23858,106 1046,106 Z M1046,84 C1048.76142,84 1051,81.7614237 1051,79 C1051,76.2385763 1048.76142,74 1046,74 C1043.23858,74 1041,76.2385763 1041,79 C1041,81.7614237 1043.23858,84 1046,84 Z M1046,62 C1048.76142,62 1051,59.7614237 1051,57 C1051,54.2385763 1048.76142,52 1046,52 C1043.23858,52 1041,54.2385763 1041,57 C1041,59.7614237 1043.23858,62 1046,62 Z M1046,40 C1048.76142,40 1051,37.7614237 1051,35 C1051,32.2385763 1048.76142,30 1046,30 C1043.23858,30 1041,32.2385763 1041,35 C1041,37.7614237 1043.23858,40 1046,40 Z M1026,348 C1028.76142,348 1031,345.761424 1031,343 C1031,340.238576 1028.76142,338 1026,338 C1023.23858,338 1021,340.238576 1021,343 C1021,345.761424 1023.23858,348 1026,348 Z M1026,326 C1028.76142,326 1031,323.761424 1031,321 C1031,318.238576 1028.76142,316 1026,316 C1023.23858,316 1021,318.238576 1021,321 C1021,323.761424 1023.23858,326 1026,326 Z M1026,304 C1028.76142,304 1031,301.761424 1031,299 C1031,296.238576 1028.76142,294 1026,294 C1023.23858,294 1021,296.238576 1021,299 C1021,301.761424 1023.23858,304 1026,304 Z M1026,282 C1028.76142,282 1031,279.761424 1031,277 C1031,274.238576 1028.76142,272 1026,272 C1023.23858,272 1021,274.238576 1021,277 C1021,279.761424 1023.23858,282 1026,282 Z M1026,260 C1028.76142,260 1031,257.761424 1031,255 C1031,252.238576 1028.76142,250 1026,250 C1023.23858,250 1021,252.238576 1021,255 C1021,257.761424 1023.23858,260 1026,260 Z M1026,238 C1028.76142,238 1031,235.761424 1031,233 C1031,230.238576 1028.76142,228 1026,228 C1023.23858,228 1021,230.238576 1021,233 C1021,235.761424 1023.23858,238 1026,238 Z M1026,216 C1028.76142,216 1031,213.761424 1031,211 C1031,208.238576 1028.76142,206 1026,206 C1023.23858,206 1021,208.238576 1021,211 C1021,213.761424 1023.23858,216 1026,216 Z M1026,194 C1028.76142,194 1031,191.761424 1031,189 C1031,186.238576 1028.76142,184 1026,184 C1023.23858,184 1021,186.238576 1021,189 C1021,191.761424 1023.23858,194 1026,194 Z M1026,172 C1028.76142,172 1031,169.761424 1031,167 C1031,164.238576 1028.76142,162 1026,162 C1023.23858,162 1021,164.238576 1021,167 C1021,169.761424 1023.23858,172 1026,172 Z M1026,150 C1028.76142,150 1031,147.761424 1031,145 C1031,142.238576 1028.76142,140 1026,140 C1023.23858,140 1021,142.238576 1021,145 C1021,147.761424 1023.23858,150 1026,150 Z M1026,128 C1028.76142,128 1031,125.761424 1031,123 C1031,120.238576 1028.76142,118 1026,118 C1023.23858,118 1021,120.238576 1021,123 C1021,125.761424 1023.23858,128 1026,128 Z M1026,106 C1028.76142,106 1031,103.761424 1031,101 C1031,98.2385763 1028.76142,96 1026,96 C1023.23858,96 1021,98.2385763 1021,101 C1021,103.761424 1023.23858,106 1026,106 Z M1026,84 C1028.76142,84 1031,81.7614237 1031,79 C1031,76.2385763 1028.76142,74 1026,74 C1023.23858,74 1021,76.2385763 1021,79 C1021,81.7614237 1023.23858,84 1026,84 Z M1026,62 C1028.76142,62 1031,59.7614237 1031,57 C1031,54.2385763 1028.76142,52 1026,52 C1023.23858,52 1021,54.2385763 1021,57 C1021,59.7614237 1023.23858,62 1026,62 Z M1026,40 C1028.76142,40 1031,37.7614237 1031,35 C1031,32.2385763 1028.76142,30 1026,30 C1023.23858,30 1021,32.2385763 1021,35 C1021,37.7614237 1023.23858,40 1026,40 Z M1006,348 C1008.76142,348 1011,345.761424 1011,343 C1011,340.238576 1008.76142,338 1006,338 C1003.23858,338 1001,340.238576 1001,343 C1001,345.761424 1003.23858,348 1006,348 Z M1006,326 C1008.76142,326 1011,323.761424 1011,321 C1011,318.238576 1008.76142,316 1006,316 C1003.23858,316 1001,318.238576 1001,321 C1001,323.761424 1003.23858,326 1006,326 Z M1006,304 C1008.76142,304 1011,301.761424 1011,299 C1011,296.238576 1008.76142,294 1006,294 C1003.23858,294 1001,296.238576 1001,299 C1001,301.761424 1003.23858,304 1006,304 Z M1006,282 C1008.76142,282 1011,279.761424 1011,277 C1011,274.238576 1008.76142,272 1006,272 C1003.23858,272 1001,274.238576 1001,277 C1001,279.761424 1003.23858,282 1006,282 Z M1006,260 C1008.76142,260 1011,257.761424 1011,255 C1011,252.238576 1008.76142,250 1006,250 C1003.23858,250 1001,252.238576 1001,255 C1001,257.761424 1003.23858,260 1006,260 Z M1006,238 C1008.76142,238 1011,235.761424 1011,233 C1011,230.238576 1008.76142,228 1006,228 C1003.23858,228 1001,230.238576 1001,233 C1001,235.761424 1003.23858,238 1006,238 Z M1006,216 C1008.76142,216 1011,213.761424 1011,211 C1011,208.238576 1008.76142,206 1006,206 C1003.23858,206 1001,208.238576 1001,211 C1001,213.761424 1003.23858,216 1006,216 Z M1006,194 C1008.76142,194 1011,191.761424 1011,189 C1011,186.238576 1008.76142,184 1006,184 C1003.23858,184 1001,186.238576 1001,189 C1001,191.761424 1003.23858,194 1006,194 Z M1006,172 C1008.76142,172 1011,169.761424 1011,167 C1011,164.238576 1008.76142,162 1006,162 C1003.23858,162 1001,164.238576 1001,167 C1001,169.761424 1003.23858,172 1006,172 Z M1006,150 C1008.76142,150 1011,147.761424 1011,145 C1011,142.238576 1008.76142,140 1006,140 C1003.23858,140 1001,142.238576 1001,145 C1001,147.761424 1003.23858,150 1006,150 Z M1006,128 C1008.76142,128 1011,125.761424 1011,123 C1011,120.238576 1008.76142,118 1006,118 C1003.23858,118 1001,120.238576 1001,123 C1001,125.761424 1003.23858,128 1006,128 Z M1006,106 C1008.76142,106 1011,103.761424 1011,101 C1011,98.2385763 1008.76142,96 1006,96 C1003.23858,96 1001,98.2385763 1001,101 C1001,103.761424 1003.23858,106 1006,106 Z M1006,84 C1008.76142,84 1011,81.7614237 1011,79 C1011,76.2385763 1008.76142,74 1006,74 C1003.23858,74 1001,76.2385763 1001,79 C1001,81.7614237 1003.23858,84 1006,84 Z M1006,62 C1008.76142,62 1011,59.7614237 1011,57 C1011,54.2385763 1008.76142,52 1006,52 C1003.23858,52 1001,54.2385763 1001,57 C1001,59.7614237 1003.23858,62 1006,62 Z M1006,40 C1008.76142,40 1011,37.7614237 1011,35 C1011,32.2385763 1008.76142,30 1006,30 C1003.23858,30 1001,32.2385763 1001,35 C1001,37.7614237 1003.23858,40 1006,40 Z M986,348 C988.761424,348 991,345.761424 991,343 C991,340.238576 988.761424,338 986,338 C983.238576,338 981,340.238576 981,343 C981,345.761424 983.238576,348 986,348 Z M986,326 C988.761424,326 991,323.761424 991,321 C991,318.238576 988.761424,316 986,316 C983.238576,316 981,318.238576 981,321 C981,323.761424 983.238576,326 986,326 Z M986,304 C988.761424,304 991,301.761424 991,299 C991,296.238576 988.761424,294 986,294 C983.238576,294 981,296.238576 981,299 C981,301.761424 983.238576,304 986,304 Z M986,282 C988.761424,282 991,279.761424 991,277 C991,274.238576 988.761424,272 986,272 C983.238576,272 981,274.238576 981,277 C981,279.761424 983.238576,282 986,282 Z M986,260 C988.761424,260 991,257.761424 991,255 C991,252.238576 988.761424,250 986,250 C983.238576,250 981,252.238576 981,255 C981,257.761424 983.238576,260 986,260 Z M986,238 C988.761424,238 991,235.761424 991,233 C991,230.238576 988.761424,228 986,228 C983.238576,228 981,230.238576 981,233 C981,235.761424 983.238576,238 986,238 Z M986,216 C988.761424,216 991,213.761424 991,211 C991,208.238576 988.761424,206 986,206 C983.238576,206 981,208.238576 981,211 C981,213.761424 983.238576,216 986,216 Z M986,194 C988.761424,194 991,191.761424 991,189 C991,186.238576 988.761424,184 986,184 C983.238576,184 981,186.238576 981,189 C981,191.761424 983.238576,194 986,194 Z M986,172 C988.761424,172 991,169.761424 991,167 C991,164.238576 988.761424,162 986,162 C983.238576,162 981,164.238576 981,167 C981,169.761424 983.238576,172 986,172 Z M986,150 C988.761424,150 991,147.761424 991,145 C991,142.238576 988.761424,140 986,140 C983.238576,140 981,142.238576 981,145 C981,147.761424 983.238576,150 986,150 Z M986,128 C988.761424,128 991,125.761424 991,123 C991,120.238576 988.761424,118 986,118 C983.238576,118 981,120.238576 981,123 C981,125.761424 983.238576,128 986,128 Z M986,106 C988.761424,106 991,103.761424 991,101 C991,98.2385763 988.761424,96 986,96 C983.238576,96 981,98.2385763 981,101 C981,103.761424 983.238576,106 986,106 Z M986,84 C988.761424,84 991,81.7614237 991,79 C991,76.2385763 988.761424,74 986,74 C983.238576,74 981,76.2385763 981,79 C981,81.7614237 983.238576,84 986,84 Z M986,62 C988.761424,62 991,59.7614237 991,57 C991,54.2385763 988.761424,52 986,52 C983.238576,52 981,54.2385763 981,57 C981,59.7614237 983.238576,62 986,62 Z M986,40 C988.761424,40 991,37.7614237 991,35 C991,32.2385763 988.761424,30 986,30 C983.238576,30 981,32.2385763 981,35 C981,37.7614237 983.238576,40 986,40 Z M966,348 C968.761424,348 971,345.761424 971,343 C971,340.238576 968.761424,338 966,338 C963.238576,338 961,340.238576 961,343 C961,345.761424 963.238576,348 966,348 Z M966,326 C968.761424,326 971,323.761424 971,321 C971,318.238576 968.761424,316 966,316 C963.238576,316 961,318.238576 961,321 C961,323.761424 963.238576,326 966,326 Z M966,304 C968.761424,304 971,301.761424 971,299 C971,296.238576 968.761424,294 966,294 C963.238576,294 961,296.238576 961,299 C961,301.761424 963.238576,304 966,304 Z M966,282 C968.761424,282 971,279.761424 971,277 C971,274.238576 968.761424,272 966,272 C963.238576,272 961,274.238576 961,277 C961,279.761424 963.238576,282 966,282 Z M966,260 C968.761424,260 971,257.761424 971,255 C971,252.238576 968.761424,250 966,250 C963.238576,250 961,252.238576 961,255 C961,257.761424 963.238576,260 966,260 Z M966,238 C968.761424,238 971,235.761424 971,233 C971,230.238576 968.761424,228 966,228 C963.238576,228 961,230.238576 961,233 C961,235.761424 963.238576,238 966,238 Z M966,216 C968.761424,216 971,213.761424 971,211 C971,208.238576 968.761424,206 966,206 C963.238576,206 961,208.238576 961,211 C961,213.761424 963.238576,216 966,216 Z M966,194 C968.761424,194 971,191.761424 971,189 C971,186.238576 968.761424,184 966,184 C963.238576,184 961,186.238576 961,189 C961,191.761424 963.238576,194 966,194 Z M966,172 C968.761424,172 971,169.761424 971,167 C971,164.238576 968.761424,162 966,162 C963.238576,162 961,164.238576 961,167 C961,169.761424 963.238576,172 966,172 Z M966,150 C968.761424,150 971,147.761424 971,145 C971,142.238576 968.761424,140 966,140 C963.238576,140 961,142.238576 961,145 C961,147.761424 963.238576,150 966,150 Z M966,128 C968.761424,128 971,125.761424 971,123 C971,120.238576 968.761424,118 966,118 C963.238576,118 961,120.238576 961,123 C961,125.761424 963.238576,128 966,128 Z M966,106 C968.761424,106 971,103.761424 971,101 C971,98.2385763 968.761424,96 966,96 C963.238576,96 961,98.2385763 961,101 C961,103.761424 963.238576,106 966,106 Z M966,84 C968.761424,84 971,81.7614237 971,79 C971,76.2385763 968.761424,74 966,74 C963.238576,74 961,76.2385763 961,79 C961,81.7614237 963.238576,84 966,84 Z M966,62 C968.761424,62 971,59.7614237 971,57 C971,54.2385763 968.761424,52 966,52 C963.238576,52 961,54.2385763 961,57 C961,59.7614237 963.238576,62 966,62 Z M966,40 C968.761424,40 971,37.7614237 971,35 C971,32.2385763 968.761424,30 966,30 C963.238576,30 961,32.2385763 961,35 C961,37.7614237 963.238576,40 966,40 Z M946,348 C948.761424,348 951,345.761424 951,343 C951,340.238576 948.761424,338 946,338 C943.238576,338 941,340.238576 941,343 C941,345.761424 943.238576,348 946,348 Z M946,326 C948.761424,326 951,323.761424 951,321 C951,318.238576 948.761424,316 946,316 C943.238576,316 941,318.238576 941,321 C941,323.761424 943.238576,326 946,326 Z M946,304 C948.761424,304 951,301.761424 951,299 C951,296.238576 948.761424,294 946,294 C943.238576,294 941,296.238576 941,299 C941,301.761424 943.238576,304 946,304 Z M946,282 C948.761424,282 951,279.761424 951,277 C951,274.238576 948.761424,272 946,272 C943.238576,272 941,274.238576 941,277 C941,279.761424 943.238576,282 946,282 Z M946,260 C948.761424,260 951,257.761424 951,255 C951,252.238576 948.761424,250 946,250 C943.238576,250 941,252.238576 941,255 C941,257.761424 943.238576,260 946,260 Z M946,238 C948.761424,238 951,235.761424 951,233 C951,230.238576 948.761424,228 946,228 C943.238576,228 941,230.238576 941,233 C941,235.761424 943.238576,238 946,238 Z M946,216 C948.761424,216 951,213.761424 951,211 C951,208.238576 948.761424,206 946,206 C943.238576,206 941,208.238576 941,211 C941,213.761424 943.238576,216 946,216 Z M946,194 C948.761424,194 951,191.761424 951,189 C951,186.238576 948.761424,184 946,184 C943.238576,184 941,186.238576 941,189 C941,191.761424 943.238576,194 946,194 Z M946,172 C948.761424,172 951,169.761424 951,167 C951,164.238576 948.761424,162 946,162 C943.238576,162 941,164.238576 941,167 C941,169.761424 943.238576,172 946,172 Z M946,150 C948.761424,150 951,147.761424 951,145 C951,142.238576 948.761424,140 946,140 C943.238576,140 941,142.238576 941,145 C941,147.761424 943.238576,150 946,150 Z M946,128 C948.761424,128 951,125.761424 951,123 C951,120.238576 948.761424,118 946,118 C943.238576,118 941,120.238576 941,123 C941,125.761424 943.238576,128 946,128 Z M946,106 C948.761424,106 951,103.761424 951,101 C951,98.2385763 948.761424,96 946,96 C943.238576,96 941,98.2385763 941,101 C941,103.761424 943.238576,106 946,106 Z M946,84 C948.761424,84 951,81.7614237 951,79 C951,76.2385763 948.761424,74 946,74 C943.238576,74 941,76.2385763 941,79 C941,81.7614237 943.238576,84 946,84 Z M946,62 C948.761424,62 951,59.7614237 951,57 C951,54.2385763 948.761424,52 946,52 C943.238576,52 941,54.2385763 941,57 C941,59.7614237 943.238576,62 946,62 Z M946,40 C948.761424,40 951,37.7614237 951,35 C951,32.2385763 948.761424,30 946,30 C943.238576,30 941,32.2385763 941,35 C941,37.7614237 943.238576,40 946,40 Z M1166,348 C1168.76142,348 1171,345.761424 1171,343 C1171,340.238576 1168.76142,338 1166,338 C1163.23858,338 1161,340.238576 1161,343 C1161,345.761424 1163.23858,348 1166,348 Z M1166,326 C1168.76142,326 1171,323.761424 1171,321 C1171,318.238576 1168.76142,316 1166,316 C1163.23858,316 1161,318.238576 1161,321 C1161,323.761424 1163.23858,326 1166,326 Z M1166,304 C1168.76142,304 1171,301.761424 1171,299 C1171,296.238576 1168.76142,294 1166,294 C1163.23858,294 1161,296.238576 1161,299 C1161,301.761424 1163.23858,304 1166,304 Z M1166,282 C1168.76142,282 1171,279.761424 1171,277 C1171,274.238576 1168.76142,272 1166,272 C1163.23858,272 1161,274.238576 1161,277 C1161,279.761424 1163.23858,282 1166,282 Z M1166,260 C1168.76142,260 1171,257.761424 1171,255 C1171,252.238576 1168.76142,250 1166,250 C1163.23858,250 1161,252.238576 1161,255 C1161,257.761424 1163.23858,260 1166,260 Z M1166,238 C1168.76142,238 1171,235.761424 1171,233 C1171,230.238576 1168.76142,228 1166,228 C1163.23858,228 1161,230.238576 1161,233 C1161,235.761424 1163.23858,238 1166,238 Z M1166,216 C1168.76142,216 1171,213.761424 1171,211 C1171,208.238576 1168.76142,206 1166,206 C1163.23858,206 1161,208.238576 1161,211 C1161,213.761424 1163.23858,216 1166,216 Z M1166,194 C1168.76142,194 1171,191.761424 1171,189 C1171,186.238576 1168.76142,184 1166,184 C1163.23858,184 1161,186.238576 1161,189 C1161,191.761424 1163.23858,194 1166,194 Z M1166,172 C1168.76142,172 1171,169.761424 1171,167 C1171,164.238576 1168.76142,162 1166,162 C1163.23858,162 1161,164.238576 1161,167 C1161,169.761424 1163.23858,172 1166,172 Z M1166,150 C1168.76142,150 1171,147.761424 1171,145 C1171,142.238576 1168.76142,140 1166,140 C1163.23858,140 1161,142.238576 1161,145 C1161,147.761424 1163.23858,150 1166,150 Z M1166,128 C1168.76142,128 1171,125.761424 1171,123 C1171,120.238576 1168.76142,118 1166,118 C1163.23858,118 1161,120.238576 1161,123 C1161,125.761424 1163.23858,128 1166,128 Z M1166,106 C1168.76142,106 1171,103.761424 1171,101 C1171,98.2385763 1168.76142,96 1166,96 C1163.23858,96 1161,98.2385763 1161,101 C1161,103.761424 1163.23858,106 1166,106 Z M1166,84 C1168.76142,84 1171,81.7614237 1171,79 C1171,76.2385763 1168.76142,74 1166,74 C1163.23858,74 1161,76.2385763 1161,79 C1161,81.7614237 1163.23858,84 1166,84 Z M1166,62 C1168.76142,62 1171,59.7614237 1171,57 C1171,54.2385763 1168.76142,52 1166,52 C1163.23858,52 1161,54.2385763 1161,57 C1161,59.7614237 1163.23858,62 1166,62 Z M1166,40 C1168.76142,40 1171,37.7614237 1171,35 C1171,32.2385763 1168.76142,30 1166,30 C1163.23858,30 1161,32.2385763 1161,35 C1161,37.7614237 1163.23858,40 1166,40 Z M1146,348 C1148.76142,348 1151,345.761424 1151,343 C1151,340.238576 1148.76142,338 1146,338 C1143.23858,338 1141,340.238576 1141,343 C1141,345.761424 1143.23858,348 1146,348 Z M1146,326 C1148.76142,326 1151,323.761424 1151,321 C1151,318.238576 1148.76142,316 1146,316 C1143.23858,316 1141,318.238576 1141,321 C1141,323.761424 1143.23858,326 1146,326 Z M1146,304 C1148.76142,304 1151,301.761424 1151,299 C1151,296.238576 1148.76142,294 1146,294 C1143.23858,294 1141,296.238576 1141,299 C1141,301.761424 1143.23858,304 1146,304 Z M1146,282 C1148.76142,282 1151,279.761424 1151,277 C1151,274.238576 1148.76142,272 1146,272 C1143.23858,272 1141,274.238576 1141,277 C1141,279.761424 1143.23858,282 1146,282 Z M1146,260 C1148.76142,260 1151,257.761424 1151,255 C1151,252.238576 1148.76142,250 1146,250 C1143.23858,250 1141,252.238576 1141,255 C1141,257.761424 1143.23858,260 1146,260 Z M1146,238 C1148.76142,238 1151,235.761424 1151,233 C1151,230.238576 1148.76142,228 1146,228 C1143.23858,228 1141,230.238576 1141,233 C1141,235.761424 1143.23858,238 1146,238 Z M1146,216 C1148.76142,216 1151,213.761424 1151,211 C1151,208.238576 1148.76142,206 1146,206 C1143.23858,206 1141,208.238576 1141,211 C1141,213.761424 1143.23858,216 1146,216 Z M1146,194 C1148.76142,194 1151,191.761424 1151,189 C1151,186.238576 1148.76142,184 1146,184 C1143.23858,184 1141,186.238576 1141,189 C1141,191.761424 1143.23858,194 1146,194 Z M1146,172 C1148.76142,172 1151,169.761424 1151,167 C1151,164.238576 1148.76142,162 1146,162 C1143.23858,162 1141,164.238576 1141,167 C1141,169.761424 1143.23858,172 1146,172 Z M1146,150 C1148.76142,150 1151,147.761424 1151,145 C1151,142.238576 1148.76142,140 1146,140 C1143.23858,140 1141,142.238576 1141,145 C1141,147.761424 1143.23858,150 1146,150 Z M1146,128 C1148.76142,128 1151,125.761424 1151,123 C1151,120.238576 1148.76142,118 1146,118 C1143.23858,118 1141,120.238576 1141,123 C1141,125.761424 1143.23858,128 1146,128 Z M1146,106 C1148.76142,106 1151,103.761424 1151,101 C1151,98.2385763 1148.76142,96 1146,96 C1143.23858,96 1141,98.2385763 1141,101 C1141,103.761424 1143.23858,106 1146,106 Z M1146,84 C1148.76142,84 1151,81.7614237 1151,79 C1151,76.2385763 1148.76142,74 1146,74 C1143.23858,74 1141,76.2385763 1141,79 C1141,81.7614237 1143.23858,84 1146,84 Z M1146,62 C1148.76142,62 1151,59.7614237 1151,57 C1151,54.2385763 1148.76142,52 1146,52 C1143.23858,52 1141,54.2385763 1141,57 C1141,59.7614237 1143.23858,62 1146,62 Z M1146,40 C1148.76142,40 1151,37.7614237 1151,35 C1151,32.2385763 1148.76142,30 1146,30 C1143.23858,30 1141,32.2385763 1141,35 C1141,37.7614237 1143.23858,40 1146,40 Z M1126,348 C1128.76142,348 1131,345.761424 1131,343 C1131,340.238576 1128.76142,338 1126,338 C1123.23858,338 1121,340.238576 1121,343 C1121,345.761424 1123.23858,348 1126,348 Z M1126,326 C1128.76142,326 1131,323.761424 1131,321 C1131,318.238576 1128.76142,316 1126,316 C1123.23858,316 1121,318.238576 1121,321 C1121,323.761424 1123.23858,326 1126,326 Z M1126,304 C1128.76142,304 1131,301.761424 1131,299 C1131,296.238576 1128.76142,294 1126,294 C1123.23858,294 1121,296.238576 1121,299 C1121,301.761424 1123.23858,304 1126,304 Z M1126,282 C1128.76142,282 1131,279.761424 1131,277 C1131,274.238576 1128.76142,272 1126,272 C1123.23858,272 1121,274.238576 1121,277 C1121,279.761424 1123.23858,282 1126,282 Z M1126,260 C1128.76142,260 1131,257.761424 1131,255 C1131,252.238576 1128.76142,250 1126,250 C1123.23858,250 1121,252.238576 1121,255 C1121,257.761424 1123.23858,260 1126,260 Z M1126,238 C1128.76142,238 1131,235.761424 1131,233 C1131,230.238576 1128.76142,228 1126,228 C1123.23858,228 1121,230.238576 1121,233 C1121,235.761424 1123.23858,238 1126,238 Z M1126,216 C1128.76142,216 1131,213.761424 1131,211 C1131,208.238576 1128.76142,206 1126,206 C1123.23858,206 1121,208.238576 1121,211 C1121,213.761424 1123.23858,216 1126,216 Z M1126,194 C1128.76142,194 1131,191.761424 1131,189 C1131,186.238576 1128.76142,184 1126,184 C1123.23858,184 1121,186.238576 1121,189 C1121,191.761424 1123.23858,194 1126,194 Z M1126,172 C1128.76142,172 1131,169.761424 1131,167 C1131,164.238576 1128.76142,162 1126,162 C1123.23858,162 1121,164.238576 1121,167 C1121,169.761424 1123.23858,172 1126,172 Z M1126,150 C1128.76142,150 1131,147.761424 1131,145 C1131,142.238576 1128.76142,140 1126,140 C1123.23858,140 1121,142.238576 1121,145 C1121,147.761424 1123.23858,150 1126,150 Z M1126,128 C1128.76142,128 1131,125.761424 1131,123 C1131,120.238576 1128.76142,118 1126,118 C1123.23858,118 1121,120.238576 1121,123 C1121,125.761424 1123.23858,128 1126,128 Z M1126,106 C1128.76142,106 1131,103.761424 1131,101 C1131,98.2385763 1128.76142,96 1126,96 C1123.23858,96 1121,98.2385763 1121,101 C1121,103.761424 1123.23858,106 1126,106 Z M1126,84 C1128.76142,84 1131,81.7614237 1131,79 C1131,76.2385763 1128.76142,74 1126,74 C1123.23858,74 1121,76.2385763 1121,79 C1121,81.7614237 1123.23858,84 1126,84 Z M1126,62 C1128.76142,62 1131,59.7614237 1131,57 C1131,54.2385763 1128.76142,52 1126,52 C1123.23858,52 1121,54.2385763 1121,57 C1121,59.7614237 1123.23858,62 1126,62 Z M1126,40 C1128.76142,40 1131,37.7614237 1131,35 C1131,32.2385763 1128.76142,30 1126,30 C1123.23858,30 1121,32.2385763 1121,35 C1121,37.7614237 1123.23858,40 1126,40 Z M1106,348 C1108.76142,348 1111,345.761424 1111,343 C1111,340.238576 1108.76142,338 1106,338 C1103.23858,338 1101,340.238576 1101,343 C1101,345.761424 1103.23858,348 1106,348 Z M1106,326 C1108.76142,326 1111,323.761424 1111,321 C1111,318.238576 1108.76142,316 1106,316 C1103.23858,316 1101,318.238576 1101,321 C1101,323.761424 1103.23858,326 1106,326 Z M1106,304 C1108.76142,304 1111,301.761424 1111,299 C1111,296.238576 1108.76142,294 1106,294 C1103.23858,294 1101,296.238576 1101,299 C1101,301.761424 1103.23858,304 1106,304 Z M1106,282 C1108.76142,282 1111,279.761424 1111,277 C1111,274.238576 1108.76142,272 1106,272 C1103.23858,272 1101,274.238576 1101,277 C1101,279.761424 1103.23858,282 1106,282 Z M1106,260 C1108.76142,260 1111,257.761424 1111,255 C1111,252.238576 1108.76142,250 1106,250 C1103.23858,250 1101,252.238576 1101,255 C1101,257.761424 1103.23858,260 1106,260 Z M1106,238 C1108.76142,238 1111,235.761424 1111,233 C1111,230.238576 1108.76142,228 1106,228 C1103.23858,228 1101,230.238576 1101,233 C1101,235.761424 1103.23858,238 1106,238 Z M1106,216 C1108.76142,216 1111,213.761424 1111,211 C1111,208.238576 1108.76142,206 1106,206 C1103.23858,206 1101,208.238576 1101,211 C1101,213.761424 1103.23858,216 1106,216 Z M1106,194 C1108.76142,194 1111,191.761424 1111,189 C1111,186.238576 1108.76142,184 1106,184 C1103.23858,184 1101,186.238576 1101,189 C1101,191.761424 1103.23858,194 1106,194 Z M1106,172 C1108.76142,172 1111,169.761424 1111,167 C1111,164.238576 1108.76142,162 1106,162 C1103.23858,162 1101,164.238576 1101,167 C1101,169.761424 1103.23858,172 1106,172 Z M1106,150 C1108.76142,150 1111,147.761424 1111,145 C1111,142.238576 1108.76142,140 1106,140 C1103.23858,140 1101,142.238576 1101,145 C1101,147.761424 1103.23858,150 1106,150 Z M1106,128 C1108.76142,128 1111,125.761424 1111,123 C1111,120.238576 1108.76142,118 1106,118 C1103.23858,118 1101,120.238576 1101,123 C1101,125.761424 1103.23858,128 1106,128 Z M1106,106 C1108.76142,106 1111,103.761424 1111,101 C1111,98.2385763 1108.76142,96 1106,96 C1103.23858,96 1101,98.2385763 1101,101 C1101,103.761424 1103.23858,106 1106,106 Z M1106,84 C1108.76142,84 1111,81.7614237 1111,79 C1111,76.2385763 1108.76142,74 1106,74 C1103.23858,74 1101,76.2385763 1101,79 C1101,81.7614237 1103.23858,84 1106,84 Z M1106,62 C1108.76142,62 1111,59.7614237 1111,57 C1111,54.2385763 1108.76142,52 1106,52 C1103.23858,52 1101,54.2385763 1101,57 C1101,59.7614237 1103.23858,62 1106,62 Z M1106,40 C1108.76142,40 1111,37.7614237 1111,35 C1111,32.2385763 1108.76142,30 1106,30 C1103.23858,30 1101,32.2385763 1101,35 C1101,37.7614237 1103.23858,40 1106,40 Z M1086,348 C1088.76142,348 1091,345.761424 1091,343 C1091,340.238576 1088.76142,338 1086,338 C1083.23858,338 1081,340.238576 1081,343 C1081,345.761424 1083.23858,348 1086,348 Z M1086,326 C1088.76142,326 1091,323.761424 1091,321 C1091,318.238576 1088.76142,316 1086,316 C1083.23858,316 1081,318.238576 1081,321 C1081,323.761424 1083.23858,326 1086,326 Z M1086,304 C1088.76142,304 1091,301.761424 1091,299 C1091,296.238576 1088.76142,294 1086,294 C1083.23858,294 1081,296.238576 1081,299 C1081,301.761424 1083.23858,304 1086,304 Z M1086,282 C1088.76142,282 1091,279.761424 1091,277 C1091,274.238576 1088.76142,272 1086,272 C1083.23858,272 1081,274.238576 1081,277 C1081,279.761424 1083.23858,282 1086,282 Z M1086,260 C1088.76142,260 1091,257.761424 1091,255 C1091,252.238576 1088.76142,250 1086,250 C1083.23858,250 1081,252.238576 1081,255 C1081,257.761424 1083.23858,260 1086,260 Z M1086,238 C1088.76142,238 1091,235.761424 1091,233 C1091,230.238576 1088.76142,228 1086,228 C1083.23858,228 1081,230.238576 1081,233 C1081,235.761424 1083.23858,238 1086,238 Z M1086,216 C1088.76142,216 1091,213.761424 1091,211 C1091,208.238576 1088.76142,206 1086,206 C1083.23858,206 1081,208.238576 1081,211 C1081,213.761424 1083.23858,216 1086,216 Z M1086,194 C1088.76142,194 1091,191.761424 1091,189 C1091,186.238576 1088.76142,184 1086,184 C1083.23858,184 1081,186.238576 1081,189 C1081,191.761424 1083.23858,194 1086,194 Z M1086,172 C1088.76142,172 1091,169.761424 1091,167 C1091,164.238576 1088.76142,162 1086,162 C1083.23858,162 1081,164.238576 1081,167 C1081,169.761424 1083.23858,172 1086,172 Z M1086,150 C1088.76142,150 1091,147.761424 1091,145 C1091,142.238576 1088.76142,140 1086,140 C1083.23858,140 1081,142.238576 1081,145 C1081,147.761424 1083.23858,150 1086,150 Z M1086,128 C1088.76142,128 1091,125.761424 1091,123 C1091,120.238576 1088.76142,118 1086,118 C1083.23858,118 1081,120.238576 1081,123 C1081,125.761424 1083.23858,128 1086,128 Z M1086,106 C1088.76142,106 1091,103.761424 1091,101 C1091,98.2385763 1088.76142,96 1086,96 C1083.23858,96 1081,98.2385763 1081,101 C1081,103.761424 1083.23858,106 1086,106 Z M1086,84 C1088.76142,84 1091,81.7614237 1091,79 C1091,76.2385763 1088.76142,74 1086,74 C1083.23858,74 1081,76.2385763 1081,79 C1081,81.7614237 1083.23858,84 1086,84 Z M1086,62 C1088.76142,62 1091,59.7614237 1091,57 C1091,54.2385763 1088.76142,52 1086,52 C1083.23858,52 1081,54.2385763 1081,57 C1081,59.7614237 1083.23858,62 1086,62 Z M1086,40 C1088.76142,40 1091,37.7614237 1091,35 C1091,32.2385763 1088.76142,30 1086,30 C1083.23858,30 1081,32.2385763 1081,35 C1081,37.7614237 1083.23858,40 1086,40 Z M1066,348 C1068.76142,348 1071,345.761424 1071,343 C1071,340.238576 1068.76142,338 1066,338 C1063.23858,338 1061,340.238576 1061,343 C1061,345.761424 1063.23858,348 1066,348 Z M1066,326 C1068.76142,326 1071,323.761424 1071,321 C1071,318.238576 1068.76142,316 1066,316 C1063.23858,316 1061,318.238576 1061,321 C1061,323.761424 1063.23858,326 1066,326 Z M1066,304 C1068.76142,304 1071,301.761424 1071,299 C1071,296.238576 1068.76142,294 1066,294 C1063.23858,294 1061,296.238576 1061,299 C1061,301.761424 1063.23858,304 1066,304 Z M1066,282 C1068.76142,282 1071,279.761424 1071,277 C1071,274.238576 1068.76142,272 1066,272 C1063.23858,272 1061,274.238576 1061,277 C1061,279.761424 1063.23858,282 1066,282 Z M1066,260 C1068.76142,260 1071,257.761424 1071,255 C1071,252.238576 1068.76142,250 1066,250 C1063.23858,250 1061,252.238576 1061,255 C1061,257.761424 1063.23858,260 1066,260 Z M1066,238 C1068.76142,238 1071,235.761424 1071,233 C1071,230.238576 1068.76142,228 1066,228 C1063.23858,228 1061,230.238576 1061,233 C1061,235.761424 1063.23858,238 1066,238 Z M1066,216 C1068.76142,216 1071,213.761424 1071,211 C1071,208.238576 1068.76142,206 1066,206 C1063.23858,206 1061,208.238576 1061,211 C1061,213.761424 1063.23858,216 1066,216 Z M1066,194 C1068.76142,194 1071,191.761424 1071,189 C1071,186.238576 1068.76142,184 1066,184 C1063.23858,184 1061,186.238576 1061,189 C1061,191.761424 1063.23858,194 1066,194 Z M1066,172 C1068.76142,172 1071,169.761424 1071,167 C1071,164.238576 1068.76142,162 1066,162 C1063.23858,162 1061,164.238576 1061,167 C1061,169.761424 1063.23858,172 1066,172 Z M1066,150 C1068.76142,150 1071,147.761424 1071,145 C1071,142.238576 1068.76142,140 1066,140 C1063.23858,140 1061,142.238576 1061,145 C1061,147.761424 1063.23858,150 1066,150 Z M1066,128 C1068.76142,128 1071,125.761424 1071,123 C1071,120.238576 1068.76142,118 1066,118 C1063.23858,118 1061,120.238576 1061,123 C1061,125.761424 1063.23858,128 1066,128 Z M1066,106 C1068.76142,106 1071,103.761424 1071,101 C1071,98.2385763 1068.76142,96 1066,96 C1063.23858,96 1061,98.2385763 1061,101 C1061,103.761424 1063.23858,106 1066,106 Z M1066,84 C1068.76142,84 1071,81.7614237 1071,79 C1071,76.2385763 1068.76142,74 1066,74 C1063.23858,74 1061,76.2385763 1061,79 C1061,81.7614237 1063.23858,84 1066,84 Z M1066,62 C1068.76142,62 1071,59.7614237 1071,57 C1071,54.2385763 1068.76142,52 1066,52 C1063.23858,52 1061,54.2385763 1061,57 C1061,59.7614237 1063.23858,62 1066,62 Z M1066,40 C1068.76142,40 1071,37.7614237 1071,35 C1071,32.2385763 1068.76142,30 1066,30 C1063.23858,30 1061,32.2385763 1061,35 C1061,37.7614237 1063.23858,40 1066,40 Z M926,348 C928.761424,348 931,345.761424 931,343 C931,340.238576 928.761424,338 926,338 C923.238576,338 921,340.238576 921,343 C921,345.761424 923.238576,348 926,348 Z M926,326 C928.761424,326 931,323.761424 931,321 C931,318.238576 928.761424,316 926,316 C923.238576,316 921,318.238576 921,321 C921,323.761424 923.238576,326 926,326 Z M926,304 C928.761424,304 931,301.761424 931,299 C931,296.238576 928.761424,294 926,294 C923.238576,294 921,296.238576 921,299 C921,301.761424 923.238576,304 926,304 Z M926,282 C928.761424,282 931,279.761424 931,277 C931,274.238576 928.761424,272 926,272 C923.238576,272 921,274.238576 921,277 C921,279.761424 923.238576,282 926,282 Z M926,260 C928.761424,260 931,257.761424 931,255 C931,252.238576 928.761424,250 926,250 C923.238576,250 921,252.238576 921,255 C921,257.761424 923.238576,260 926,260 Z M926,238 C928.761424,238 931,235.761424 931,233 C931,230.238576 928.761424,228 926,228 C923.238576,228 921,230.238576 921,233 C921,235.761424 923.238576,238 926,238 Z M926,216 C928.761424,216 931,213.761424 931,211 C931,208.238576 928.761424,206 926,206 C923.238576,206 921,208.238576 921,211 C921,213.761424 923.238576,216 926,216 Z M926,194 C928.761424,194 931,191.761424 931,189 C931,186.238576 928.761424,184 926,184 C923.238576,184 921,186.238576 921,189 C921,191.761424 923.238576,194 926,194 Z M926,172 C928.761424,172 931,169.761424 931,167 C931,164.238576 928.761424,162 926,162 C923.238576,162 921,164.238576 921,167 C921,169.761424 923.238576,172 926,172 Z M926,150 C928.761424,150 931,147.761424 931,145 C931,142.238576 928.761424,140 926,140 C923.238576,140 921,142.238576 921,145 C921,147.761424 923.238576,150 926,150 Z M926,128 C928.761424,128 931,125.761424 931,123 C931,120.238576 928.761424,118 926,118 C923.238576,118 921,120.238576 921,123 C921,125.761424 923.238576,128 926,128 Z M926,106 C928.761424,106 931,103.761424 931,101 C931,98.2385763 928.761424,96 926,96 C923.238576,96 921,98.2385763 921,101 C921,103.761424 923.238576,106 926,106 Z M926,84 C928.761424,84 931,81.7614237 931,79 C931,76.2385763 928.761424,74 926,74 C923.238576,74 921,76.2385763 921,79 C921,81.7614237 923.238576,84 926,84 Z M926,62 C928.761424,62 931,59.7614237 931,57 C931,54.2385763 928.761424,52 926,52 C923.238576,52 921,54.2385763 921,57 C921,59.7614237 923.238576,62 926,62 Z M926,40 C928.761424,40 931,37.7614237 931,35 C931,32.2385763 928.761424,30 926,30 C923.238576,30 921,32.2385763 921,35 C921,37.7614237 923.238576,40 926,40 Z M906,348 C908.761424,348 911,345.761424 911,343 C911,340.238576 908.761424,338 906,338 C903.238576,338 901,340.238576 901,343 C901,345.761424 903.238576,348 906,348 Z M906,326 C908.761424,326 911,323.761424 911,321 C911,318.238576 908.761424,316 906,316 C903.238576,316 901,318.238576 901,321 C901,323.761424 903.238576,326 906,326 Z M906,304 C908.761424,304 911,301.761424 911,299 C911,296.238576 908.761424,294 906,294 C903.238576,294 901,296.238576 901,299 C901,301.761424 903.238576,304 906,304 Z M906,282 C908.761424,282 911,279.761424 911,277 C911,274.238576 908.761424,272 906,272 C903.238576,272 901,274.238576 901,277 C901,279.761424 903.238576,282 906,282 Z M906,260 C908.761424,260 911,257.761424 911,255 C911,252.238576 908.761424,250 906,250 C903.238576,250 901,252.238576 901,255 C901,257.761424 903.238576,260 906,260 Z M906,238 C908.761424,238 911,235.761424 911,233 C911,230.238576 908.761424,228 906,228 C903.238576,228 901,230.238576 901,233 C901,235.761424 903.238576,238 906,238 Z M906,216 C908.761424,216 911,213.761424 911,211 C911,208.238576 908.761424,206 906,206 C903.238576,206 901,208.238576 901,211 C901,213.761424 903.238576,216 906,216 Z M906,194 C908.761424,194 911,191.761424 911,189 C911,186.238576 908.761424,184 906,184 C903.238576,184 901,186.238576 901,189 C901,191.761424 903.238576,194 906,194 Z M906,172 C908.761424,172 911,169.761424 911,167 C911,164.238576 908.761424,162 906,162 C903.238576,162 901,164.238576 901,167 C901,169.761424 903.238576,172 906,172 Z M906,150 C908.761424,150 911,147.761424 911,145 C911,142.238576 908.761424,140 906,140 C903.238576,140 901,142.238576 901,145 C901,147.761424 903.238576,150 906,150 Z M906,128 C908.761424,128 911,125.761424 911,123 C911,120.238576 908.761424,118 906,118 C903.238576,118 901,120.238576 901,123 C901,125.761424 903.238576,128 906,128 Z M906,106 C908.761424,106 911,103.761424 911,101 C911,98.2385763 908.761424,96 906,96 C903.238576,96 901,98.2385763 901,101 C901,103.761424 903.238576,106 906,106 Z M906,84 C908.761424,84 911,81.7614237 911,79 C911,76.2385763 908.761424,74 906,74 C903.238576,74 901,76.2385763 901,79 C901,81.7614237 903.238576,84 906,84 Z M906,62 C908.761424,62 911,59.7614237 911,57 C911,54.2385763 908.761424,52 906,52 C903.238576,52 901,54.2385763 901,57 C901,59.7614237 903.238576,62 906,62 Z M906,40 C908.761424,40 911,37.7614237 911,35 C911,32.2385763 908.761424,30 906,30 C903.238576,30 901,32.2385763 901,35 C901,37.7614237 903.238576,40 906,40 Z M886,348 C888.761424,348 891,345.761424 891,343 C891,340.238576 888.761424,338 886,338 C883.238576,338 881,340.238576 881,343 C881,345.761424 883.238576,348 886,348 Z M886,326 C888.761424,326 891,323.761424 891,321 C891,318.238576 888.761424,316 886,316 C883.238576,316 881,318.238576 881,321 C881,323.761424 883.238576,326 886,326 Z M886,304 C888.761424,304 891,301.761424 891,299 C891,296.238576 888.761424,294 886,294 C883.238576,294 881,296.238576 881,299 C881,301.761424 883.238576,304 886,304 Z M886,282 C888.761424,282 891,279.761424 891,277 C891,274.238576 888.761424,272 886,272 C883.238576,272 881,274.238576 881,277 C881,279.761424 883.238576,282 886,282 Z M886,260 C888.761424,260 891,257.761424 891,255 C891,252.238576 888.761424,250 886,250 C883.238576,250 881,252.238576 881,255 C881,257.761424 883.238576,260 886,260 Z M886,238 C888.761424,238 891,235.761424 891,233 C891,230.238576 888.761424,228 886,228 C883.238576,228 881,230.238576 881,233 C881,235.761424 883.238576,238 886,238 Z M886,216 C888.761424,216 891,213.761424 891,211 C891,208.238576 888.761424,206 886,206 C883.238576,206 881,208.238576 881,211 C881,213.761424 883.238576,216 886,216 Z M886,194 C888.761424,194 891,191.761424 891,189 C891,186.238576 888.761424,184 886,184 C883.238576,184 881,186.238576 881,189 C881,191.761424 883.238576,194 886,194 Z M886,172 C888.761424,172 891,169.761424 891,167 C891,164.238576 888.761424,162 886,162 C883.238576,162 881,164.238576 881,167 C881,169.761424 883.238576,172 886,172 Z M886,150 C888.761424,150 891,147.761424 891,145 C891,142.238576 888.761424,140 886,140 C883.238576,140 881,142.238576 881,145 C881,147.761424 883.238576,150 886,150 Z M886,128 C888.761424,128 891,125.761424 891,123 C891,120.238576 888.761424,118 886,118 C883.238576,118 881,120.238576 881,123 C881,125.761424 883.238576,128 886,128 Z M886,106 C888.761424,106 891,103.761424 891,101 C891,98.2385763 888.761424,96 886,96 C883.238576,96 881,98.2385763 881,101 C881,103.761424 883.238576,106 886,106 Z M886,84 C888.761424,84 891,81.7614237 891,79 C891,76.2385763 888.761424,74 886,74 C883.238576,74 881,76.2385763 881,79 C881,81.7614237 883.238576,84 886,84 Z M886,62 C888.761424,62 891,59.7614237 891,57 C891,54.2385763 888.761424,52 886,52 C883.238576,52 881,54.2385763 881,57 C881,59.7614237 883.238576,62 886,62 Z M886,40 C888.761424,40 891,37.7614237 891,35 C891,32.2385763 888.761424,30 886,30 C883.238576,30 881,32.2385763 881,35 C881,37.7614237 883.238576,40 886,40 Z M866,348 C868.761424,348 871,345.761424 871,343 C871,340.238576 868.761424,338 866,338 C863.238576,338 861,340.238576 861,343 C861,345.761424 863.238576,348 866,348 Z M866,326 C868.761424,326 871,323.761424 871,321 C871,318.238576 868.761424,316 866,316 C863.238576,316 861,318.238576 861,321 C861,323.761424 863.238576,326 866,326 Z M866,304 C868.761424,304 871,301.761424 871,299 C871,296.238576 868.761424,294 866,294 C863.238576,294 861,296.238576 861,299 C861,301.761424 863.238576,304 866,304 Z M866,282 C868.761424,282 871,279.761424 871,277 C871,274.238576 868.761424,272 866,272 C863.238576,272 861,274.238576 861,277 C861,279.761424 863.238576,282 866,282 Z M866,260 C868.761424,260 871,257.761424 871,255 C871,252.238576 868.761424,250 866,250 C863.238576,250 861,252.238576 861,255 C861,257.761424 863.238576,260 866,260 Z M866,238 C868.761424,238 871,235.761424 871,233 C871,230.238576 868.761424,228 866,228 C863.238576,228 861,230.238576 861,233 C861,235.761424 863.238576,238 866,238 Z M866,216 C868.761424,216 871,213.761424 871,211 C871,208.238576 868.761424,206 866,206 C863.238576,206 861,208.238576 861,211 C861,213.761424 863.238576,216 866,216 Z M866,194 C868.761424,194 871,191.761424 871,189 C871,186.238576 868.761424,184 866,184 C863.238576,184 861,186.238576 861,189 C861,191.761424 863.238576,194 866,194 Z M866,172 C868.761424,172 871,169.761424 871,167 C871,164.238576 868.761424,162 866,162 C863.238576,162 861,164.238576 861,167 C861,169.761424 863.238576,172 866,172 Z M866,150 C868.761424,150 871,147.761424 871,145 C871,142.238576 868.761424,140 866,140 C863.238576,140 861,142.238576 861,145 C861,147.761424 863.238576,150 866,150 Z M866,128 C868.761424,128 871,125.761424 871,123 C871,120.238576 868.761424,118 866,118 C863.238576,118 861,120.238576 861,123 C861,125.761424 863.238576,128 866,128 Z M866,106 C868.761424,106 871,103.761424 871,101 C871,98.2385763 868.761424,96 866,96 C863.238576,96 861,98.2385763 861,101 C861,103.761424 863.238576,106 866,106 Z M866,84 C868.761424,84 871,81.7614237 871,79 C871,76.2385763 868.761424,74 866,74 C863.238576,74 861,76.2385763 861,79 C861,81.7614237 863.238576,84 866,84 Z M866,62 C868.761424,62 871,59.7614237 871,57 C871,54.2385763 868.761424,52 866,52 C863.238576,52 861,54.2385763 861,57 C861,59.7614237 863.238576,62 866,62 Z M866,40 C868.761424,40 871,37.7614237 871,35 C871,32.2385763 868.761424,30 866,30 C863.238576,30 861,32.2385763 861,35 C861,37.7614237 863.238576,40 866,40 Z M846,348 C848.761424,348 851,345.761424 851,343 C851,340.238576 848.761424,338 846,338 C843.238576,338 841,340.238576 841,343 C841,345.761424 843.238576,348 846,348 Z M846,326 C848.761424,326 851,323.761424 851,321 C851,318.238576 848.761424,316 846,316 C843.238576,316 841,318.238576 841,321 C841,323.761424 843.238576,326 846,326 Z M846,304 C848.761424,304 851,301.761424 851,299 C851,296.238576 848.761424,294 846,294 C843.238576,294 841,296.238576 841,299 C841,301.761424 843.238576,304 846,304 Z M846,282 C848.761424,282 851,279.761424 851,277 C851,274.238576 848.761424,272 846,272 C843.238576,272 841,274.238576 841,277 C841,279.761424 843.238576,282 846,282 Z M846,260 C848.761424,260 851,257.761424 851,255 C851,252.238576 848.761424,250 846,250 C843.238576,250 841,252.238576 841,255 C841,257.761424 843.238576,260 846,260 Z M846,238 C848.761424,238 851,235.761424 851,233 C851,230.238576 848.761424,228 846,228 C843.238576,228 841,230.238576 841,233 C841,235.761424 843.238576,238 846,238 Z M846,216 C848.761424,216 851,213.761424 851,211 C851,208.238576 848.761424,206 846,206 C843.238576,206 841,208.238576 841,211 C841,213.761424 843.238576,216 846,216 Z M846,194 C848.761424,194 851,191.761424 851,189 C851,186.238576 848.761424,184 846,184 C843.238576,184 841,186.238576 841,189 C841,191.761424 843.238576,194 846,194 Z M846,172 C848.761424,172 851,169.761424 851,167 C851,164.238576 848.761424,162 846,162 C843.238576,162 841,164.238576 841,167 C841,169.761424 843.238576,172 846,172 Z M846,150 C848.761424,150 851,147.761424 851,145 C851,142.238576 848.761424,140 846,140 C843.238576,140 841,142.238576 841,145 C841,147.761424 843.238576,150 846,150 Z M846,128 C848.761424,128 851,125.761424 851,123 C851,120.238576 848.761424,118 846,118 C843.238576,118 841,120.238576 841,123 C841,125.761424 843.238576,128 846,128 Z M846,106 C848.761424,106 851,103.761424 851,101 C851,98.2385763 848.761424,96 846,96 C843.238576,96 841,98.2385763 841,101 C841,103.761424 843.238576,106 846,106 Z M846,84 C848.761424,84 851,81.7614237 851,79 C851,76.2385763 848.761424,74 846,74 C843.238576,74 841,76.2385763 841,79 C841,81.7614237 843.238576,84 846,84 Z M846,62 C848.761424,62 851,59.7614237 851,57 C851,54.2385763 848.761424,52 846,52 C843.238576,52 841,54.2385763 841,57 C841,59.7614237 843.238576,62 846,62 Z M846,40 C848.761424,40 851,37.7614237 851,35 C851,32.2385763 848.761424,30 846,30 C843.238576,30 841,32.2385763 841,35 C841,37.7614237 843.238576,40 846,40 Z M826,348 C828.761424,348 831,345.761424 831,343 C831,340.238576 828.761424,338 826,338 C823.238576,338 821,340.238576 821,343 C821,345.761424 823.238576,348 826,348 Z M826,326 C828.761424,326 831,323.761424 831,321 C831,318.238576 828.761424,316 826,316 C823.238576,316 821,318.238576 821,321 C821,323.761424 823.238576,326 826,326 Z M826,304 C828.761424,304 831,301.761424 831,299 C831,296.238576 828.761424,294 826,294 C823.238576,294 821,296.238576 821,299 C821,301.761424 823.238576,304 826,304 Z M826,282 C828.761424,282 831,279.761424 831,277 C831,274.238576 828.761424,272 826,272 C823.238576,272 821,274.238576 821,277 C821,279.761424 823.238576,282 826,282 Z M826,260 C828.761424,260 831,257.761424 831,255 C831,252.238576 828.761424,250 826,250 C823.238576,250 821,252.238576 821,255 C821,257.761424 823.238576,260 826,260 Z M826,238 C828.761424,238 831,235.761424 831,233 C831,230.238576 828.761424,228 826,228 C823.238576,228 821,230.238576 821,233 C821,235.761424 823.238576,238 826,238 Z M826,216 C828.761424,216 831,213.761424 831,211 C831,208.238576 828.761424,206 826,206 C823.238576,206 821,208.238576 821,211 C821,213.761424 823.238576,216 826,216 Z M826,194 C828.761424,194 831,191.761424 831,189 C831,186.238576 828.761424,184 826,184 C823.238576,184 821,186.238576 821,189 C821,191.761424 823.238576,194 826,194 Z M826,172 C828.761424,172 831,169.761424 831,167 C831,164.238576 828.761424,162 826,162 C823.238576,162 821,164.238576 821,167 C821,169.761424 823.238576,172 826,172 Z M826,150 C828.761424,150 831,147.761424 831,145 C831,142.238576 828.761424,140 826,140 C823.238576,140 821,142.238576 821,145 C821,147.761424 823.238576,150 826,150 Z M826,128 C828.761424,128 831,125.761424 831,123 C831,120.238576 828.761424,118 826,118 C823.238576,118 821,120.238576 821,123 C821,125.761424 823.238576,128 826,128 Z M826,106 C828.761424,106 831,103.761424 831,101 C831,98.2385763 828.761424,96 826,96 C823.238576,96 821,98.2385763 821,101 C821,103.761424 823.238576,106 826,106 Z M826,84 C828.761424,84 831,81.7614237 831,79 C831,76.2385763 828.761424,74 826,74 C823.238576,74 821,76.2385763 821,79 C821,81.7614237 823.238576,84 826,84 Z M826,62 C828.761424,62 831,59.7614237 831,57 C831,54.2385763 828.761424,52 826,52 C823.238576,52 821,54.2385763 821,57 C821,59.7614237 823.238576,62 826,62 Z M826,40 C828.761424,40 831,37.7614237 831,35 C831,32.2385763 828.761424,30 826,30 C823.238576,30 821,32.2385763 821,35 C821,37.7614237 823.238576,40 826,40 Z" id="dot-grid"></path>
            </g>
        </g>
    </g>
</svg>